  0
SECTION
  2
HEADER
  9
$ACADVER
  1
AC1009
  0
ENDSEC
  0
SECTION
  2
TABLES
  0
TABLE
  2
LAYER
 70
     1
  0
LAYER
  2
0
 70
     0
 62
     7
  6
CONTINUOUS
  0
ENDTAB
  0
ENDSEC
  0
SECTION
  2
BLOCKS
  0
ENDSEC
  0
SECTION
  2
ENTITIES
  0
POLYLINE
  8
0
 66
     1
 70
     1
  0
VERTEX
  8
0
 10
0
 20
0
  0
VERTEX
  8
0
 10
3.0
 20
0
  0
VERTEX
  8
0
 10
3.0
 20
3.0
  0
VERTEX
  8
0
 10
0
 20
3.0
  0
SEQEND
  0
POLYLINE
  8
0
 66
     1
 70
     1
  0
VERTEX
  8
0
 10
2.61
 20
3.0
  0
VERTEX
  8
0
 10
2.61
 20
2.94
  0
VERTEX
  8
0
 10
2.61
 20
2.88
  0
VERTEX
  8
0
 10
2.58
 20
2.85
  0
VERTEX
  8
0
 10
2.55
 20
2.82
  0
VERTEX
  8
0
 10
2.55
 20
2.76
  0
VERTEX
  8
0
 10
2.55
 20
2.6999999999999997
  0
VERTEX
  8
0
 10
2.55
 20
2.6399999999999997
  0
VERTEX
  8
0
 10
2.52
 20
2.61
  0
VERTEX
  8
0
 10
2.4899999999999998
 20
2.58
  0
VERTEX
  8
0
 10
2.4899999999999998
 20
2.52
  0
VERTEX
  8
0
 10
2.46
 20
2.4899999999999998
  0
VERTEX
  8
0
 10
2.4299999999999997
 20
2.46
  0
VERTEX
  8
0
 10
2.4299999999999997
 20
2.4
  0
VERTEX
  8
0
 10
2.4
 20
2.37
  0
VERTEX
  8
0
 10
2.37
 20
2.34
  0
VERTEX
  8
0
 10
2.37
 20
2.28
  0
VERTEX
  8
0
 10
2.34
 20
2.25
  0
VERTEX
  8
0
 10
2.31
 20
2.2199999999999998
  0
VERTEX
  8
0
 10
2.28
 20
2.19
  0
VERTEX
  8
0
 10
2.25
 20
2.16
  0
VERTEX
  8
0
 10
2.2199999999999998
 20
2.13
  0
VERTEX
  8
0
 10
2.16
 20
2.13
  0
VERTEX
  8
0
 10
2.13
 20
2.1
  0
VERTEX
  8
0
 10
2.1
 20
2.07
  0
VERTEX
  8
0
 10
2.04
 20
2.07
  0
VERTEX
  8
0
 10
2.01
 20
2.04
  0
VERTEX
  8
0
 10
1.98
 20
2.01
  0
VERTEX
  8
0
 10
1.95
 20
1.98
  0
VERTEX
  8
0
 10
1.92
 20
1.95
  0
VERTEX
  8
0
 10
1.8599999999999999
 20
1.95
  0
VERTEX
  8
0
 10
1.7999999999999998
 20
1.95
  0
VERTEX
  8
0
 10
1.74
 20
1.95
  0
VERTEX
  8
0
 10
1.71
 20
1.92
  0
VERTEX
  8
0
 10
1.68
 20
1.89
  0
VERTEX
  8
0
 10
1.6199999999999999
 20
1.89
  0
VERTEX
  8
0
 10
1.56
 20
1.89
  0
VERTEX
  8
0
 10
1.5
 20
1.89
  0
VERTEX
  8
0
 10
1.44
 20
1.89
  0
VERTEX
  8
0
 10
1.38
 20
1.89
  0
VERTEX
  8
0
 10
1.3499999999999999
 20
1.92
  0
VERTEX
  8
0
 10
1.3199999999999998
 20
1.95
  0
VERTEX
  8
0
 10
1.26
 20
1.95
  0
VERTEX
  8
0
 10
1.2
 20
1.95
  0
VERTEX
  8
0
 10
1.14
 20
1.95
  0
VERTEX
  8
0
 10
1.08
 20
1.95
  0
VERTEX
  8
0
 10
1.02
 20
1.95
  0
VERTEX
  8
0
 10
0.99
 20
1.98
  0
VERTEX
  8
0
 10
0.96
 20
2.01
  0
VERTEX
  8
0
 10
0.8999999999999999
 20
2.01
  0
VERTEX
  8
0
 10
0.87
 20
2.04
  0
VERTEX
  8
0
 10
0.84
 20
2.07
  0
VERTEX
  8
0
 10
0.78
 20
2.07
  0
VERTEX
  8
0
 10
0.75
 20
2.1
  0
VERTEX
  8
0
 10
0.72
 20
2.13
  0
VERTEX
  8
0
 10
0.69
 20
2.16
  0
VERTEX
  8
0
 10
0.6599999999999999
 20
2.19
  0
VERTEX
  8
0
 10
0.63
 20
2.2199999999999998
  0
VERTEX
  8
0
 10
0.6
 20
2.25
  0
VERTEX
  8
0
 10
0.57
 20
2.28
  0
VERTEX
  8
0
 10
0.54
 20
2.31
  0
VERTEX
  8
0
 10
0.51
 20
2.34
  0
VERTEX
  8
0
 10
0.51
 20
2.4
  0
VERTEX
  8
0
 10
0.51
 20
2.46
  0
VERTEX
  8
0
 10
0.48
 20
2.4899999999999998
  0
VERTEX
  8
0
 10
0.44999999999999996
 20
2.52
  0
VERTEX
  8
0
 10
0.44999999999999996
 20
2.58
  0
VERTEX
  8
0
 10
0.44999999999999996
 20
2.6399999999999997
  0
VERTEX
  8
0
 10
0.42
 20
2.67
  0
VERTEX
  8
0
 10
0.39
 20
2.6999999999999997
  0
VERTEX
  8
0
 10
0.39
 20
2.76
  0
VERTEX
  8
0
 10
0.39
 20
2.82
  0
VERTEX
  8
0
 10
0.36
 20
2.85
  0
VERTEX
  8
0
 10
0.32999999999999996
 20
2.88
  0
VERTEX
  8
0
 10
0.32999999999999996
 20
2.94
  0
VERTEX
  8
0
 10
0.32999999999999996
 20
3.0
  0
SEQEND
  0
POLYLINE
  8
0
 66
     1
 70
     1
  0
VERTEX
  8
0
 10
0.32999999999999996
 20
0.06
  0
VERTEX
  8
0
 10
0.32999999999999996
 20
0.12
  0
VERTEX
  8
0
 10
0.32999999999999996
 20
0.18
  0
VERTEX
  8
0
 10
0.36
 20
0.21
  0
VERTEX
  8
0
 10
0.39
 20
0.24
  0
VERTEX
  8
0
 10
0.39
 20
0.3
  0
VERTEX
  8
0
 10
0.39
 20
0.36
  0
VERTEX
  8
0
 10
0.42
 20
0.39
  0
VERTEX
  8
0
 10
0.44999999999999996
 20
0.42
  0
VERTEX
  8
0
 10
0.44999999999999996
 20
0.48
  0
VERTEX
  8
0
 10
0.44999999999999996
 20
0.54
  0
VERTEX
  8
0
 10
0.48
 20
0.57
  0
VERTEX
  8
0
 10
0.51
 20
0.6
  0
VERTEX
  8
0
 10
0.51
 20
0.6599999999999999
  0
VERTEX
  8
0
 10
0.51
 20
0.72
  0
VERTEX
  8
0
 10
0.54
 20
0.75
  0
VERTEX
  8
0
 10
0.57
 20
0.78
  0
VERTEX
  8
0
 10
0.6
 20
0.8099999999999999
  0
VERTEX
  8
0
 10
0.63
 20
0.84
  0
VERTEX
  8
0
 10
0.6599999999999999
 20
0.87
  0
VERTEX
  8
0
 10
0.69
 20
0.8999999999999999
  0
VERTEX
  8
0
 10
0.72
 20
0.9299999999999999
  0
VERTEX
  8
0
 10
0.75
 20
0.96
  0
VERTEX
  8
0
 10
0.78
 20
0.99
  0
VERTEX
  8
0
 10
0.84
 20
0.99
  0
VERTEX
  8
0
 10
0.87
 20
1.02
  0
VERTEX
  8
0
 10
0.8999999999999999
 20
1.05
  0
VERTEX
  8
0
 10
0.96
 20
1.05
  0
VERTEX
  8
0
 10
0.99
 20
1.08
  0
VERTEX
  8
0
 10
1.02
 20
1.1099999999999999
  0
VERTEX
  8
0
 10
1.08
 20
1.1099999999999999
  0
VERTEX
  8
0
 10
1.14
 20
1.1099999999999999
  0
VERTEX
  8
0
 10
1.2
 20
1.1099999999999999
  0
VERTEX
  8
0
 10
1.23
 20
1.14
  0
VERTEX
  8
0
 10
1.26
 20
1.17
  0
VERTEX
  8
0
 10
1.3199999999999998
 20
1.17
  0
VERTEX
  8
0
 10
1.38
 20
1.17
  0
VERTEX
  8
0
 10
1.44
 20
1.17
  0
VERTEX
  8
0
 10
1.5
 20
1.17
  0
VERTEX
  8
0
 10
1.56
 20
1.17
  0
VERTEX
  8
0
 10
1.6199999999999999
 20
1.17
  0
VERTEX
  8
0
 10
1.68
 20
1.17
  0
VERTEX
  8
0
 10
1.71
 20
1.14
  0
VERTEX
  8
0
 10
1.74
 20
1.1099999999999999
  0
VERTEX
  8
0
 10
1.7999999999999998
 20
1.1099999999999999
  0
VERTEX
  8
0
 10
1.8599999999999999
 20
1.1099999999999999
  0
VERTEX
  8
0
 10
1.92
 20
1.1099999999999999
  0
VERTEX
  8
0
 10
1.95
 20
1.08
  0
VERTEX
  8
0
 10
1.98
 20
1.05
  0
VERTEX
  8
0
 10
2.04
 20
1.05
  0
VERTEX
  8
0
 10
2.07
 20
1.02
  0
VERTEX
  8
0
 10
2.1
 20
0.99
  0
VERTEX
  8
0
 10
2.13
 20
0.96
  0
VERTEX
  8
0
 10
2.16
 20
0.9299999999999999
  0
VERTEX
  8
0
 10
2.2199999999999998
 20
0.9299999999999999
  0
VERTEX
  8
0
 10
2.25
 20
0.8999999999999999
  0
VERTEX
  8
0
 10
2.28
 20
0.87
  0
VERTEX
  8
0
 10
2.31
 20
0.84
  0
VERTEX
  8
0
 10
2.34
 20
0.8099999999999999
  0
VERTEX
  8
0
 10
2.37
 20
0.78
  0
VERTEX
  8
0
 10
2.37
 20
0.72
  0
VERTEX
  8
0
 10
2.4
 20
0.69
  0
VERTEX
  8
0
 10
2.4299999999999997
 20
0.6599999999999999
  0
VERTEX
  8
0
 10
2.4299999999999997
 20
0.6
  0
VERTEX
  8
0
 10
2.46
 20
0.57
  0
VERTEX
  8
0
 10
2.4899999999999998
 20
0.54
  0
VERTEX
  8
0
 10
2.4899999999999998
 20
0.48
  0
VERTEX
  8
0
 10
2.52
 20
0.44999999999999996
  0
VERTEX
  8
0
 10
2.55
 20
0.42
  0
VERTEX
  8
0
 10
2.55
 20
0.36
  0
VERTEX
  8
0
 10
2.55
 20
0.3
  0
VERTEX
  8
0
 10
2.55
 20
0.24
  0
VERTEX
  8
0
 10
2.58
 20
0.21
  0
VERTEX
  8
0
 10
2.61
 20
0.18
  0
VERTEX
  8
0
 10
2.61
 20
0.12
  0
VERTEX
  8
0
 10
2.61
 20
0.06
  0
SEQEND
  0
ENDSEC
  0
EOF
